# AST/ASF file generated using VICON BodyLanguage
# -----------------------------------------------
:version 1.10
:name VICON
:units
  mass 1.0
  length 0.45
  angle deg
:documentation
   .ast/.asf automatically generated from VICON data using
   VICON BodyBuilder and BodyLanguage model FoxedUp or BRILLIANT.MOD
:root
   order TX TY TZ RX RY RZ
   axis XYZ
   position 0 0 0  
   orientation 0 -0 0 
:bonedata
  begin
     id 1 
     name lhipjoint
     direction 0.500677 -0.737119 0.453848 
     length 2.34727 
     axis 0 -0 0  XYZ
  end
  begin
     id 2 
     name lfemur
     direction 0.34202 -0.939693 0  
     length 7.53653  
     axis 0 -0 20  XYZ
    dof rx ry rz
    limits (-160.0 20.0)
           (-70.0 70.0)
           (-60.0 70.0)
  end
  begin
     id 3 
     name ltibia
     direction 0.34202 -0.939693 0   
     length 6.85572   
     axis 0 -0 20   XYZ
    dof rx
    limits (-10.0 170.0)
  end
  begin
     id 4 
     name lfoot
     direction 0.155313 -0.426718 0.890949   
     length 2.18324   
     axis -90 -1.13533e-015 20   XYZ
    dof rx rz
    limits (-45.0 90.0)
           (-70.0 20.0)
  end
  begin
     id 5 
     name ltoes
     direction 1.53474e-011 -4.21647e-011 1   
     length 1.06748   
     axis -90 -1.13533e-015 20   XYZ
    dof rx
    limits (-90.0 20.0)
  end
  begin
     id 6 
     name rhipjoint
     direction -0.632471 -0.659587 0.406111   
     length 2.62319  
     axis 0 -0 0  XYZ 
  end
  begin
     id 7 
     name rfemur
     direction -0.34202 -0.939693 0   
     length 7.21735   
     axis 0 -0 -20   XYZ
    dof rx ry rz
    limits (-160.0 20.0)
           (-70.0 70.0)
           (-70.0 60.0)
  end
  begin
     id 8 
     name rtibia
     direction -0.34202 -0.939693 0   
     length 7.02558   
     axis 0 -0 -20   XYZ
    dof rx
    limits (-10.0 170.0)
 end
 begin
     id 9 
     name rfoot
     direction -0.16057 -0.441164 0.882945   
     length 2.10014  
     axis -90 1.13533e-015 -20   XYZ
    dof rx rz
    limits (-45.0 90.0)
           (-20.0 70.0)
  end
  begin
     id 10 
     name rtoes
     direction -1.53553e-011 -4.2192e-011 1   
     length 1.02554   
     axis -90 1.13533e-015 -20   XYZ
    dof rx
    limits (-90.0 20.0)
  end
  begin
     id 11 
     name lowerback
     direction 0.0401429 0.998861 -0.0258085   
     length 1.80848   
     axis 0 -0 0   XYZ
    dof rx ry rz
    limits (-20.0 45.0)
           (-30.0 30.0)
           (-30.0 30.0)
  end
  begin
     id 12 
     name upperback
     direction -0.0130978 0.999914 -0.000352645   
     length 1.8116   
     axis 0 -0 0   XYZ
    dof rx ry rz
    limits (-20.0 45.0)
           (-30.0 30.0)
           (-30.0 30.0)
  end
  begin
     id 13 
     name thorax
     direction -0.0300198 0.999453 0.0138573   
     length 1.81778   
     axis 0 -0 0   XYZ
    dof rx ry rz
    limits (-20.0 45.0)
           (-30.0 30.0)
           (-30.0 30.0)
  end
  begin
     id 14 
     name lowerneck
     direction -0.0401726 0.999191 -0.00173647   
     length 2.10594   
     axis 0 -0 0   XYZ
    dof rx ry rz
    limits (-20.0 45.0)
           (-30.0 30.0)
           (-30.0 30.0)
  end
  begin
     id 15 
     name upperneck
     direction 0.0119835 0.998501 0.0534085   
     length 2.07325   
     axis 0 -0 0   XYZ
    dof rx ry rz
    limits (-20.0 45.0)
           (-30.0 30.0)
           (-30.0 30.0)
  end
  begin
     id 16
     name head
     direction 0.00628309 0.999826 0.0175921  
     length 2.15096  
     axis 0 -0 0   XYZ
    dof rx ry rz
    limits (-20.0 45.0)
           (-30.0 30.0)
           (-30.0 30.0)
  end
  begin
     id 17 
     name lclavicle
     direction 0.895501 0.429681 -0.115981  
     length 4.18092  
     axis 0 -0 0   XYZ
    dof ry rz
    limits (-20.0 10.0)
           (0.0 20.0)
  end
  begin
     id 18 
     name lhumerus
     direction 1 -4.48961e-011 -3.38433e-028   
     length 5.77237   
     axis 180 -30 -90   XYZ
    dof rx ry rz
    limits (-60.0 90.0)
           (-90.0 90.0)
           (-90.0 90.0)
  end
  begin
     id 19
     name lradius
     direction 1 -4.4901e-011 1.11983e-026   
     length 2.91878   
     axis 180 -30 -90   XYZ
    dof rx
    limits (-10.0 170.0)
  end
  begin
     id 20
     name lwrist
     direction 1 -4.48934e-011 1.88176e-026   
     length 1.45939   
     axis -1.23311e-014 90 90   XYZ
    dof ry
    limits (-180.0 0.0)
 end
  begin
     id 21 
     name lhand
     direction 1 -4.4895e-011 3.76352e-026   
     length 1.06566   
     axis -2.40147e-014 90 90   XYZ
    dof rx rz
    limits (-90.0 90.0)
           (-45.0 45.0)
  end
  begin
     id 22 
     name lfingers
     direction 1 -4.49005e-011 7.52705e-026   
     length 0.859162   
     axis -4.80295e-014 90 90   XYZ
    dof rx
    limits (0.0 90.0)
  end
  begin
     id 23
     name lthumb
     direction 0.707107 -6.34885e-011 0.707107   
     length 1.23359   
     axis -90 45 -9.86935e-015   XYZ
    dof rx rz
    limits (-45.0 45.0)
           (-45.0 45.0)
  end
  begin
     id 24 
     name rclavicle
     direction -0.91006 0.40451 -0.0903492   
     length 4.23293  
     axis 0 -0 0   XYZ 
    dof ry rz
    limits (-10.0 20.0)
           (-20.0 0.0)
  end
  begin
     id 25 
     name rhumerus
     direction -1 -4.4897e-011 1.7415e-027  
     length 5.49854   
     axis 180 30 90   XYZ
    dof rx ry rz
    limits (-90.0 60.0)
           (-90.0 90.0)
           (-90.0 90.0)
  end
  begin
     id 26 
     name rradius
     direction -1 -4.48963e-011 1.21259e-026   
     length 3.1186   
     axis 180 30 90   XYZ
    dof rx
    limits (-10.0 170.0)
  end
  begin
     id 27 
     name rwrist
     direction -1 -4.48967e-011 1.88176e-026   
     length 1.5593   
     axis -1.23311e-014 -90 -90   XYZ
    dof ry
    limits (-180.0 0.0)
  end
  begin
     id 28
     name rhand
     direction -1 -4.4895e-011 3.76352e-026   
     length 0.71207   
     axis -2.40147e-014 -90 -90   XYZ
    dof rx rz
    limits (-90.0 90.0)
           (-45.0 45.0)
  end
  begin
     id 29
     name rfingers
     direction -1 -4.49005e-011 7.52705e-026   
     length 0.574089   
     axis -4.80295e-014 -90 -90   XYZ
    dof rx
    limits (0.0 90.0)
  end
  begin
     id 30
     name rthumb
     direction -0.707107 -6.34982e-011 0.707107   
     length 0.824281   
     axis -90 -45 9.86935e-015   XYZ
    dof rx rz
    limits (-45.0 45.0)
           (-45.0 45.0)
  end
:hierarchy
  begin
    root lhipjoint rhipjoint lowerback
    lhipjoint lfemur
    lfemur ltibia
    ltibia lfoot
    lfoot ltoes
    rhipjoint rfemur
    rfemur rtibia
    rtibia rfoot
    rfoot rtoes
    lowerback upperback
    upperback thorax
    thorax lowerneck lclavicle rclavicle
    lowerneck upperneck
    upperneck head
    lclavicle lhumerus
    lhumerus lradius
    lradius lwrist
    lwrist lhand lthumb
    lhand lfingers
    rclavicle rhumerus
    rhumerus rradius
    rradius rwrist
    rwrist rhand rthumb
    rhand rfingers
  end

#!OML:ASF C:\ViconDB\ViconDB\414\Spring2016\042216\male.ASF
:FULLY-SPECIFIED
:DEGREES
802
root 41.53 17.9217 11.1144 1058.09 66.4085 1412.16
lowerback -1.00708 -1.47524 6.96822
upperback -0.39937 -2.02945 -1.44311
thorax -0.143079 -1.03327 -5.42112
lowerneck -0.0651842 14.5557 -1.74318
upperneck -5.56435 19.1074 -10.6075
head -0.819207 9.77153 -3.07819
rclavicle 5.11374e-014 -1.74931e-014
rhumerus -31.4516 -0.871956 -88.1356
rradius 22.2849
rwrist 42.8797
rhand 17.1485 -19.4886
rfingers 7.12502
rthumb 41.87 -44.122
lclavicle 5.11374e-014 -1.74931e-014
lhumerus -28.996 22.9879 77.2241
lradius 42.4528
lwrist -4.7352
lhand -10.3451 13.499
lfingers 7.12502
lthumb 15.6513 42.8859
rfemur 2.76089 13.275 22.618
rtibia 23.0023
rfoot -5.48999 -2.60813
rtoes -27.7451
lfemur -19.3825 -8.29078 -3.21345
ltibia 29.5378
lfoot -13.7492 28.4316
ltoes -8.5157
803
root 41.6051 17.9486 11.0769 1057.62 66.7363 1411.72
lowerback -0.826313 -1.57423 6.97561
upperback -0.40329 -2.14841 -1.40281
thorax -0.264671 -1.09747 -5.37695
lowerneck -0.0213257 14.5688 -1.6506
upperneck -5.49757 19.1307 -10.5494
head -0.801018 9.77878 -3.07253
rclavicle 3.24516e-014 1.59028e-015
rhumerus -31.7906 -1.79871 -87.7246
rradius 22.7185
rwrist 41.9315
rhand 16.6146 -19.1084
rfingers 7.12502
rthumb 41.3692 -43.9063
lclavicle 3.24516e-014 1.59028e-015
lhumerus -28.5835 22.4602 77.5586
lradius 42.7306
lwrist -4.42687
lhand -10.2323 14.0741
lfingers 7.12502
lthumb 15.7599 43.4525
rfemur 2.04695 13.4278 22.7617
rtibia 23.9641
rfoot -6.88733 -5.16738
rtoes -26.8046
lfemur -18.9162 -8.37585 -3.48336
ltibia 28.8744
lfoot -13.6781 28.1193
ltoes -8.25589
804
root 41.6768 17.9726 11.0424 1057.02 67.0007 1411.2
lowerback -0.620774 -1.69143 6.92241
upperback -0.435983 -2.28832 -1.29402
thorax -0.427519 -1.17394 -5.22463
lowerneck 0.1985 14.5925 -1.58867
upperneck -5.43147 19.1592 -10.4555
head -0.819051 9.79271 -3.06862
rclavicle -1.73937e-015 1.27222e-014
rhumerus -32.17 -2.34271 -87.4703
rradius 23.1741
rwrist 40.6998
rhand 15.8474 -19.2599
rfingers 7.12502
rthumb 40.6487 -44.2869
lclavicle -1.73937e-015 1.27222e-014
lhumerus -28.3284 22.0022 77.8423
lradius 42.949
lwrist -4.18289
lhand -10.0475 14.0867
lfingers 7.12502
lthumb 15.9379 43.451
rfemur 1.40675 13.7421 22.9753
rtibia 24.7302
rfoot -8.16709 -7.65432
rtoes -24.7449
lfemur -18.3876 -8.48119 -3.6764
ltibia 28.2282
lfoot -13.6133 27.8381
ltoes -8.38106
805
root 41.7511 17.9947 11.007 1056.77 67.3471 1411.06
lowerback -0.475697 -1.7678 6.84165
upperback -0.40601 -2.38044 -1.2998
thorax -0.487885 -1.22119 -5.17962
lowerneck 0.170538 14.5723 -1.44895
upperneck -5.25903 19.151 -10.3706
head -0.754493 9.77744 -3.04843
rclavicle -2.42517e-014 -4.77083e-015
rhumerus -32.4152 -2.71245 -87.4168
rradius 23.6075
rwrist 38.9852
rhand 15.1685 -19.3455
rfingers 7.12502
rthumb 40.0102 -44.5685
lclavicle -2.42517e-014 -4.77083e-015
lhumerus -27.8551 21.3865 78.1775
lradius 43.1073
lwrist -3.9014
lhand -10.4243 13.7718
lfingers 7.12502
lthumb 15.575 43.1647
rfemur 0.792907 13.6731 22.9905
rtibia 25.3702
rfoot -9.15337 -9.7701
rtoes -25.2721
lfemur -17.9056 -8.48774 -4.08701
ltibia 27.6854
lfoot -13.6181 27.4915
ltoes -8.49333
806
root 41.8203 18.0097 10.9715 1056.59 67.7693 1410.9
lowerback -0.381279 -1.87704 6.72679
upperback -0.423184 -2.51861 -1.28083
thorax -0.572135 -1.29331 -5.08933
lowerneck 0.260292 14.5753 -1.41036
upperneck -5.17993 19.159 -10.2672
head -0.750741 9.77817 -3.02584
rclavicle 9.17391e-014 4.77083e-015
rhumerus -32.6384 -2.99516 -87.3577
rradius 24.0842
rwrist 37.5667
rhand 14.5695 -19.4815
rfingers 7.12502
rthumb 39.4463 -44.8722
lclavicle 9.17391e-014 4.77083e-015
lhumerus -27.5209 21.4431 78.3475
lradius 43.1586
lwrist -4.36839
lhand -9.92226 14.1769
lfingers 7.12502
lthumb 16.0585 43.5314
rfemur 0.126943 13.5975 22.9432
rtibia 25.8324
rfoot -10.116 -11.6197
rtoes -24.7853
lfemur -17.5776 -8.44953 -4.51496
ltibia 27.1885
lfoot -13.6794 27.0382
ltoes -8.68089
807
root 41.8897 18.0252 10.9413 1056.3 68.1472 1410.72
lowerback -0.284817 -1.96159 6.61995
upperback -0.386736 -2.62548 -1.24809
thorax -0.596828 -1.34608 -4.99048
lowerneck 0.33066 14.5371 -1.42358
upperneck -5.09449 19.1126 -10.1213
head -0.75369 9.75144 -2.98231
rclavicle -1.64494e-014 4.29375e-014
rhumerus -32.8176 -3.2502 -87.2456
rradius 24.5881
rwrist 36.7311
rhand 14.3665 -19.4542
rfingers 7.12502
rthumb 39.255 -44.9007
lclavicle -1.64494e-014 4.29375e-014
lhumerus -27.191 21.0747 78.6551
lradius 43.2796
lwrist -4.33651
lhand -10.0987 14.391
lfingers 7.12502
lthumb 15.8886 43.7592
rfemur -0.444653 13.6082 22.9172
rtibia 26.1207
rfoot -11.0423 -13.1466
rtoes -23.8088
lfemur -17.1394 -8.34113 -4.92852
ltibia 26.7961
lfoot -13.9545 26.5648
ltoes -8.58537
808
root 41.9591 18.0392 10.9141 1056.44 68.4325 1411.05
lowerback -0.160144 -2.0344 6.28843
upperback -0.328468 -2.7157 -1.23613
thorax -0.602392 -1.3884 -4.78609
lowerneck 0.35192 14.5604 -1.32706
upperneck -4.98884 19.1538 -10.0489
head -0.719544 9.76581 -2.96825
rclavicle 7.5886e-014 0
rhumerus -32.9196 -3.80286 -87.1109
rradius 25.0255
rwrist 36.4111
rhand 14.367 -19.298
rfingers 7.12502
rthumb 39.2554 -44.7444
lclavicle 7.5886e-014 0
lhumerus -26.9199 20.7282 78.8469
lradius 43.4349
lwrist -4.2086
lhand -10.3057 14.1101
lfingers 7.12502
lthumb 15.6893 43.4941
rfemur -0.916143 13.8438 22.7839
rtibia 26.2586
rfoot -11.9669 -14.4229
rtoes -23.3858
lfemur -16.6338 -8.05456 -5.48641
ltibia 26.4759
lfoot -14.215 26.0932
ltoes -8.55341
